<?xml version="1.0" encoding="UTF-8" standalone="no"?>
<svg
   xmlns:dc="http://purl.org/dc/elements/1.1/"
   xmlns:cc="http://creativecommons.org/ns#"
   xmlns:rdf="http://www.w3.org/1999/02/22-rdf-syntax-ns#"
   xmlns:svg="http://www.w3.org/2000/svg"
   xmlns="http://www.w3.org/2000/svg"
   xmlns:sodipodi="http://sodipodi.sourceforge.net/DTD/sodipodi-0.dtd"
   xmlns:inkscape="http://www.inkscape.org/namespaces/inkscape"
   id="svg2"
   xml:space="preserve"
   height="60"
   width="60"
   version="1.0"
   sodipodi:docname="HMS_logo.svg"
   inkscape:version="1.0.1 (3bc2e813f5, 2020-09-07)"><metadata
     id="metadata854"><rdf:RDF><cc:Work
         rdf:about=""><dc:format>image/svg+xml</dc:format><dc:type
           rdf:resource="http://purl.org/dc/dcmitype/StillImage" /><dc:title></dc:title></cc:Work></rdf:RDF></metadata><defs
     id="defs852" /><sodipodi:namedview
     pagecolor="#ffffff"
     bordercolor="#666666"
     borderopacity="1"
     objecttolerance="10"
     gridtolerance="10"
     guidetolerance="10"
     inkscape:pageopacity="0"
     inkscape:pageshadow="2"
     inkscape:window-width="2250"
     inkscape:window-height="1438"
     id="namedview850"
     showgrid="false"
     fit-margin-top="0"
     fit-margin-left="0"
     fit-margin-right="0"
     fit-margin-bottom="0"
     inkscape:zoom="16.450132"
     inkscape:cx="9.7840897"
     inkscape:cy="27.599678"
     inkscape:window-x="-6"
     inkscape:window-y="-6"
     inkscape:window-maximized="1"
     inkscape:current-layer="svg2"
     inkscape:document-rotation="0" /><path
     id="Border"
     d="M 6.4890544,20.087541 V 1.0696844 l 47.5953506,8.3e-5 c 0,0 -0.0093,2.8334099 -0.0093,19.1404756 0,24.095923 -23.996354,38.221025 -23.996354,38.221025 0,0 -23.5860895,-14.830389 -23.5860895,-38.343643 h -0.00176 -0.00188 z"
     stroke="#000000"
     stroke-width="0.851968"
     fill="none"
     style="fill:none;fill-opacity:1;stroke:#ffffff;stroke-opacity:1" /><path
     id="Lion-Rampant-Black"
     d="m 16.633012,19.732618 c -0.217579,0.02213 -0.492606,0.05535 -0.525797,0.306114 l -0.06483,0.316918 c -0.49324,0 -0.995138,-0.349215 -1.521568,-0.16206 -0.250769,0.161341 -0.501898,0.348149 -0.657245,0.590621 -0.03134,0.567917 0.65651,0.347168 0.745478,0.785093 0,0.405654 0.315694,0.747119 0.502387,1.022781 -0.128611,0.217579 -0.373776,0.345065 -0.502387,0.56541 l -0.307915,0.777891 c 0.122619,0.250768 0.275273,0.55743 0.592421,0.59062 0.437462,-0.187155 0.810086,0.121106 1.280277,0.06302 0.275663,0.0249 0.742901,-0.217002 0.77609,0.244892 0.153966,0.379841 7.77e-4,0.719519 -0.03242,1.058795 -0.403812,0.590966 -0.939604,1.028732 -1.53057,1.312689 -0.186695,0.122619 -0.186521,0.404389 -0.122447,0.59062 0.220346,0.308851 0.714824,0.186247 1.062396,0.153058 0.655503,-0.03134 1.14955,-0.40456 1.771862,-0.468175 0.154887,0.314383 0.406058,0.687871 0.713066,0.840913 0.501537,0.130916 0.623881,-0.557127 1.125419,-0.372738 0.403811,0.317149 0.283858,0.90869 0.657246,1.282077 0.02212,0.21758 -0.186925,0.216686 -0.316919,0.306115 -0.52643,0.186233 -1.270812,5.62e-4 -1.674625,0.437564 -0.06638,0.250768 0.153173,0.471502 0.340328,0.560008 0.46005,0.25077 1.059184,0.313922 1.618802,0.403351 0.493241,0.06361 1.027263,-0.122618 1.489157,0 l -0.154858,0.252093 -1.521567,1.026384 c -0.687771,0.283958 -1.43221,0.437693 -2.056367,0.77789 -0.963431,0.250769 -1.368712,-0.964872 -2.243637,-0.900336 -0.372465,0 -0.622096,0.122705 -0.873326,0.342128 -0.217579,0.217578 -0.251344,0.558756 -0.18727,0.842714 0.130456,0.27566 0.534799,0.152163 0.534799,0.45917 -0.03319,0.874925 -0.785135,1.499385 -0.840913,2.407498 -0.03319,0.209282 0.03073,0.492896 0.275503,0.590622 0.16134,0.08942 0.404848,0.03184 0.532998,-0.09724 0.187156,-0.186234 0.186335,-0.471358 0.495186,-0.527598 0.532883,0.05624 1.093281,0.05628 1.465746,-0.347529 0.184389,-0.02489 0.370938,0.162075 0.370938,0.315117 0,0.220344 2.6e-4,0.471503 0.219682,0.56001 0.777198,0.03134 1.148785,-0.778279 1.496358,-1.3379 0.342042,-0.06454 0.712317,-0.315738 1.051593,-0.09724 0.130915,0.534727 -0.304918,0.907682 -0.394348,1.400923 0.0249,0.130915 0.186363,0.251315 0.340326,0.284506 0.930243,-0.121697 1.464336,-0.997659 2.023957,-1.685429 0.08758,-0.18531 0.184215,-0.437562 0.468175,-0.437562 0.713584,0.219421 0.900896,-0.646254 1.337897,-0.961559 h 0.183669 c 0.06546,0.217578 -0.08943,0.370275 0,0.59062 0.308851,0.339274 0.658152,-0.03199 0.96516,-0.08823 l 0.657246,-0.405149 c 0.777198,0.24247 1.584504,0.430345 2.394892,0.623031 0.654581,0.242471 0.0014,0.932287 0.405151,1.336099 -0.08943,0.217579 -0.371485,0.284507 -0.655444,0.284505 -1.368164,0.184389 -2.955406,-0.187054 -4.047909,0.840915 l -0.65724,0.646447 c -1.01967,0.03319 -1.555564,0.90843 -2.486727,1.062396 -0.623235,0.437 -1.587731,-0.187788 -1.991543,0.525797 0.308851,0.654579 1.087692,0.87344 1.775462,1.060594 0.282114,0.128152 0.742771,-0.03168 0.896736,0.282706 0.03319,0.308851 0.09751,0.68123 0.469973,0.810303 0.283959,0.08851 0.438889,-0.314816 0.689658,-0.09725 0.339276,0.470191 0.840755,0.687496 1.116417,1.125419 -0.219422,0.403811 -0.745795,0.153058 -1.116417,0.153058 l -0.06483,-0.0306 c -0.559619,0.06454 -1.281012,0.33916 -1.710638,-0.187269 -0.599264,-0.437002 -1.059731,-1.116416 -1.90331,-1.116416 -0.468347,0.120775 -0.96107,0.307281 -1.058794,0.833711 -0.05809,0.315304 0.251963,0.435878 0.372737,0.623032 -0.557775,0.378919 -1.149547,0.963734 -0.965159,1.716039 0.06638,0.153965 0.122705,0.340327 0.342129,0.340327 0.282113,0 0.502227,-0.250278 0.777889,-0.09724 0.06454,0.471114 -0.05815,1.188704 0.502387,1.408126 0.437002,-0.06454 0.751759,-0.533964 1.213653,-0.185469 0.468348,0.219423 0.842252,-0.216613 1.246064,-0.347529 0.657347,0 0.898839,0.622859 1.116417,1.091205 0.406577,0.307008 0.972751,0.810232 1.532371,0.505991 0.371543,-0.536573 -0.33988,-1.21629 0.370939,-1.564785 0.437,-0.122618 0.810864,0.03109 1.247865,-0.06663 0.680395,0.06638 1.520747,0.131781 1.901509,-0.612227 l 0.61583,-1.062397 0.129648,-0.657245 c 0.404734,-0.120774 0.99681,0.527626 1.183041,-0.08823 -0.219422,-0.629688 -0.283194,-1.246151 -0.185468,-1.933921 0.119852,-0.471113 0.338338,-0.908446 0.653643,-1.215452 l 0.154858,0.06483 c 0.186233,0.777199 0.218011,1.555088 0.558208,2.276049 -0.06454,0.713585 -0.437289,1.333778 -0.525796,2.047362 -0.187155,0.752308 -0.72145,1.346155 -1.400923,1.685429 -0.162261,0.129072 -0.284073,0.338829 -0.187269,0.556408 0.187154,0.348496 0.649076,0.154224 0.997572,0.219682 0.96343,-0.121696 1.860914,-0.591945 2.517339,-1.303685 0.688691,0.187155 1.029825,-0.655171 1.651215,-0.282706 0.657346,0.501538 1.83801,-0.373301 2.088779,0.687858 -0.09681,0.493238 0.372825,1.402145 -0.437563,1.618802 -0.808545,-0.129072 -1.739362,-1.190676 -2.549752,-0.250293 -0.195451,0.184388 -0.314324,0.438932 -0.194472,0.687857 0.130917,0.221266 0.284247,0.492663 0.06483,0.677053 -0.217579,0.373387 -0.526561,0.844297 -0.340327,1.314489 0.155808,0.276583 0.469816,0.2768 0.745477,0.221482 0.468348,-0.188997 0.906616,0.207223 1.36851,0.23949 0.404734,0.318071 0.808574,0.690522 1.343301,0.653644 0.220345,-0.119854 0.187285,-0.399821 0.340326,-0.58882 0.340199,-0.281193 1.060597,-0.216801 1.060597,-0.839112 0.08943,-0.465582 0.493758,-0.885715 0.900335,-1.12542 0.08851,0.03227 0.993496,-0.197714 1.244265,-0.635638 0,-0.0046 -0.008,-0.0052 -0.01621,-0.0144 h 0.01621 0.018 c -0.153043,-0.129074 -0.348667,-0.377782 -0.453769,-0.469976 -0.187155,-0.840814 1.124556,-1.400562 0.469975,-2.299458 -0.153042,-0.532883 -0.03358,-1.213853 -0.560009,-1.627807 -0.370621,-0.307007 -0.873887,-0.364326 -1.310888,-0.646441 0,-0.219422 0.282719,-0.153302 0.435762,-0.219682 0.688691,-0.186232 1.311869,0.656568 1.807875,0.03242 0.06361,-0.470192 -0.373604,-0.873354 -0.682456,-1.179439 -1.027967,-0.721883 -2.590057,-0.438024 -3.367255,-1.532372 l 0.09724,-0.09004 c 0.997543,0.212047 2.08195,0.03334 2.834257,-0.621231 0.437001,-0.559621 0.873585,-1.126458 1.553979,-1.31269 0.689614,-0.52643 0.77789,-1.401124 0.77789,-2.276049 0.03319,-0.340198 0.184994,-0.645965 0.435762,-0.896734 0.373388,-0.348496 1.336862,-0.220792 1.15063,-0.941752 -0.52643,-0.273817 -1.083802,-0.525551 -1.707037,-0.459171 -0.28488,-0.153042 0.06363,-0.374237 0.153057,-0.502386 0.996622,-0.657347 2.557546,-1.061548 2.493931,-2.51914 -0.09772,-0.16134 -0.06435,-0.404416 -0.315117,-0.435764 -0.437923,0.05531 -0.68015,0.467412 -1.085807,0.653644 -0.93946,0.52643 -2.121708,0.429655 -3.021526,0.997572 -0.192686,0 -0.126637,-0.250537 -0.06302,-0.316918 0.340198,-0.468348 1.027709,-0.493038 1.278476,-1.084005 0.187155,-0.471112 0.275749,-1.092243 0.803101,-1.278476 0.314382,-0.250769 0.818585,-0.251445 1.002973,-0.624833 -0.03134,-0.219421 -0.281941,-0.339736 -0.468174,-0.40335 -0.908114,-0.283958 -1.775304,0.251187 -2.396694,0.866123 -0.657346,0.282115 -1.401773,0.53307 -1.90331,1.067798 -0.08943,0.02489 -0.250293,-0.03129 -0.250293,-0.194473 -0.122618,-1.237247 1.002181,-2.146069 1.804273,-2.890077 0.599263,-0.162263 1.093094,-0.874219 1.780864,-0.56721 0.462817,0.252612 0.964712,0.503148 1.521567,0.316917 0.688692,-0.250768 0.843435,-1.027536 1.465747,-1.400923 0.47019,-0.153043 1.116963,0.525853 1.400922,-0.129649 0.153043,-0.681316 -0.404215,-1.086654 -0.713066,-1.588192 0.373387,-0.96343 0.08935,-2.079861 -0.687856,-2.767632 -0.371544,-0.220344 -0.841475,-0.374713 -1.278478,-0.252094 -0.340197,0.437001 0.317106,0.721925 0.347532,1.150629 0.153964,1.781196 -1.780908,2.185642 -2.931494,2.931493 -2.178554,1.092505 -4.825815,2.769534 -4.978857,5.569477 0.03134,1.563617 0.680092,2.930154 1.741249,4.024501 0.556854,0.961588 1.466712,1.862053 1.118218,3.084551 -0.211126,0.493239 -0.802884,0.558208 -1.273076,0.558208 -1.869701,-0.129072 -2.897972,-2.21098 -3.675171,-3.642759 -0.250768,-0.567917 -0.558495,-1.092951 -0.623031,-1.748452 0.09772,-0.08943 0.18498,-0.05808 0.282704,0 0.340199,0.315305 0.307526,1.059026 0.900336,0.972362 0.468348,-0.657344 0.128324,-1.435076 -0.122445,-2.090578 -0.339275,-0.590045 -1.061143,-0.906416 -1.345102,-1.530572 -0.03134,-0.460049 0.656466,-0.185425 0.689657,-0.648241 -0.252612,-0.81039 -0.284073,-1.651591 -0.18727,-2.403896 0.120775,-0.339276 0.623034,-0.308477 0.623033,-0.745478 -0.217579,-0.777199 -0.216858,-1.554961 -0.183669,-2.396694 0.08943,-0.501538 0.491743,-1.02755 0.216081,-1.55398 -0.557775,-0.162262 -0.0966,-0.841633 -0.623031,-1.002975 -1.059315,0 -1.83611,-0.560138 -2.744224,-0.900334 -0.461894,-0.119853 -0.81062,0.152567 -1.181241,0.250293 -0.590966,0.122618 -1.21407,0.123008 -1.618804,0.560008 -0.283958,0.340198 -0.219682,0.711972 -0.219682,1.181241 -0.08943,0.283959 -0.340155,0.03227 -0.462773,0 -0.437001,-0.251691 -0.598167,-0.712893 -0.468173,-1.181241 0.05624,-0.219422 -0.03345,-0.436655 -0.219682,-0.59062 -0.282116,-0.186232 -0.687988,-0.28393 -1.028185,-0.154858 -0.437923,0.154887 -0.557444,0.6483 -0.743677,1.029984 -0.03319,0.307008 0.03243,0.678378 0.18547,0.929147 0.624154,0.655502 1.491042,0.897829 2.178812,1.465746 0.119853,0.370622 -0.12197,0.745291 -0.372738,1.060596 -0.03319,0.342041 0.466963,0.341234 0.40335,0.648241 -0.501538,0.129995 -0.993323,0.03334 -1.36671,-0.275502 -0.250769,-0.218501 -0.315491,-0.688145 -0.722069,-0.752681 -0.370622,0 -0.437577,0.501913 -0.59062,0.752681 -0.120775,0.275662 -0.03119,0.74578 -0.275503,0.963359 l -0.282704,-0.03241 C 21.89608,25.27023 20.747827,24.589836 19.622134,23.7481 18.974007,23.246564 18.504867,22.501215 18.003331,21.844791 17.759016,21.066671 17.630563,19.975075 16.633019,19.732603 Z m 8.517176,0.603225 c 0.153965,-0.03319 0.311518,0.05491 0.311518,0.208879 -0.09773,0.403811 -0.09591,0.797826 0.154856,1.138022 0.64905,0.713586 1.660465,0.91928 2.072574,1.762859 h -0.259297 c -0.777199,-0.49324 -1.469262,-1.121876 -2.279651,-1.503562 -0.306085,-0.211124 -0.52169,-0.528013 -0.466373,-0.932746 0.06638,-0.275661 0.160288,-0.618135 0.466373,-0.673452 z m 4.456663,0 c 0.96343,0.02304 1.611803,0.767388 2.486727,0.984967 0.122618,0.186232 0.03611,0.589886 0.415955,0.621231 0.08851,0 0.205276,0.109352 0.205276,0.207078 -0.03042,0.308852 -0.116769,0.625698 -0.205276,0.934549 -0.09588,0.250768 -0.415955,0.324078 -0.415955,0.671649 0,0.187155 0.278326,0.280142 0.311517,0.466375 l -0.05222,1.244264 c -0.777198,0.250769 -0.410135,1.26132 -0.466373,1.762858 -0.09772,0.406577 0.03319,0.788233 0,1.192043 -0.186232,0.08943 -0.524428,0.08075 -0.621232,0.361936 -1e-6,0.471113 0.208892,0.821423 0.361935,1.192045 0.28396,0.406577 0.850984,0.508955 0.882329,1.035385 -0.404733,0.03319 -0.762706,-0.24208 -1.141625,-0.361934 -0.590966,-0.317149 -1.007628,-0.935686 -1.346904,-1.50176 -0.09772,-0.08943 -0.222085,-0.122619 -0.311515,0 -0.06361,0.370622 -0.07396,0.949573 -0.414155,1.192043 -0.404733,-0.24247 -0.380805,-1.241554 -1.035387,-0.934548 -0.220344,1.33682 -1.140515,2.398222 -1.917715,3.523915 -0.186231,0.05808 -0.223902,0.323833 -0.466373,0.259296 0.398279,-1.027966 0.714449,-2.270733 0.309715,-3.419474 -0.09681,-0.219423 -0.303232,-0.14718 -0.464573,-0.05222 -0.187154,0.122618 -0.288698,0.399144 -0.570813,0.309716 -0.219422,-0.339275 0.242242,-0.868184 -0.259296,-1.087607 -0.428704,0.09772 -0.661999,0.488098 -1.035386,0.675252 -0.938539,0.556854 -2.088505,0.744745 -3.214199,0.77609 -0.219423,0 -0.394175,-0.06543 -0.516794,-0.154859 0.28396,-0.283957 0.696111,-0.33236 1.035387,-0.518592 1.304551,-0.777199 2.151241,-2.20346 3.212398,-3.264617 -0.09681,-0.461895 -0.48742,-1.021716 -0.05042,-1.451342 0.348495,-0.03319 0.450009,0.377867 0.72567,0.466374 0.468348,0.250769 1.101018,0.376081 1.604399,0.156658 0.437923,-0.08943 0.744701,-0.477595 0.777889,-0.882328 0.03134,-0.186233 -0.136678,-0.297399 -0.259296,-0.361935 -0.119852,0 -0.253476,0.01818 -0.309715,-0.104445 0,-0.217579 0.123482,-0.380965 0.309715,-0.414155 0.52643,0.03319 1.077954,1.139163 1.451341,0.207077 0.217579,-0.744007 -0.458537,-1.292708 -0.984967,-1.761055 -0.121696,-0.153965 -0.219394,-0.307469 -0.154858,-0.518594 0.403811,-0.250769 -0.107301,-0.604867 0.207078,-0.880529 0.52643,-0.403811 1.359938,-0.167002 1.917715,-0.570813 z m -12.799173,0.208879 c 0.170559,-0.09865 0.466373,0.328715 0.466373,0.516791 0.03134,0.161341 0.06454,0.292459 0,0.414155 -0.122619,0.120775 -0.273427,0.01596 -0.361934,-0.05041 -0.187156,-0.153042 -0.273457,-0.417771 -0.207077,-0.570814 0.0074,-0.164105 0.04548,-0.277446 0.102642,-0.309714 z m -1.6062,0.257495 c 0.752767,-0.05624 1.221417,0.67793 1.658419,1.139824 0.841735,0.413032 1.481606,1.250819 2.072573,1.969936 1.336818,1.117395 2.733289,2.101944 4.352223,2.538947 0.06454,0.250769 -0.123483,0.489061 -0.309715,0.67345 -0.534728,0.55962 -0.946707,1.206336 -1.503561,1.710638 -0.122618,0.03042 -0.266011,0.01232 -0.363736,-0.05222 -0.557776,-0.534727 -0.486988,-1.625228 -1.451341,-1.658418 -0.306086,-0.03319 -0.571677,0.375203 -0.88053,0.154858 -0.315303,-0.250769 0.107334,-0.809251 -0.361934,-0.930948 -0.52643,0.219423 -0.982043,0.822476 -1.606198,0.725672 0.406578,-0.680396 1.147633,-1.4274 0.776089,-2.33367 -0.09681,-0.405656 -0.350483,-0.82916 -0.72387,-0.984969 -0.372465,-0.03042 -0.611581,0.396034 -0.984968,0.208879 -0.153042,-0.347573 -0.802551,-0.186031 -0.518593,-0.623032 0.217579,-0.381686 1.099057,-0.412152 0.725672,-1.035386 -0.250769,-0.340198 -0.816455,-0.154686 -0.88053,-0.623034 0.06407,-0.283957 -0.186693,-0.694295 0,-0.880529 z m 14.196495,0.154857 c -0.08943,0.0083 -0.192038,0.08013 -0.257497,0.15666 -0.05624,0.27566 -0.233538,0.617183 0.05042,0.828307 0.275662,0.28396 0.665644,0.342863 1.037187,0.311517 0.219422,-0.03319 0.366832,-0.196575 0.311516,-0.414154 -0.253535,-0.275661 -0.542132,-0.591659 -0.882329,-0.777891 -0.08021,-0.04517 -0.169868,-0.111815 -0.259296,-0.104434 z m 14.354953,0.311517 c 0.437924,0.153042 0.435029,0.682829 0.466375,1.089406 0.09772,0.49324 -0.37915,0.779648 -0.259297,1.242463 0.130916,0.25077 0.499564,0.345572 0.466374,0.621232 -1.181011,0.03319 -1.355172,1.588971 -2.538947,1.55578 -0.501538,-0.09681 -0.912596,-0.614504 -1.503561,-0.363734 -1.529506,0.712661 -3.162225,1.770966 -3.574334,3.576133 -0.178857,0.688692 -0.139601,1.463499 0.361937,2.020352 0.122619,0.06638 0.285038,0.06638 0.415953,0 0.307008,-0.556853 0.548831,-1.288199 1.294683,-1.44954 0.437002,-0.153965 0.888106,-0.320044 1.294683,-0.570812 0.06454,0 0.173888,-0.07593 0.207078,0.05222 -0.186232,0.527351 -0.44442,1.159748 -1.035386,1.346902 -0.437924,0.372466 -0.87651,0.842268 -0.932748,1.399122 -0.03319,0.283959 -0.06272,0.66295 0.154857,0.880529 0.219424,0.186232 0.478922,-0.08446 0.673452,-0.207078 0.800247,-0.994778 2.050418,-1.127508 3.264618,-1.192045 0.05624,0.09773 -0.138523,0.280171 -0.259297,0.311517 -1.027968,0.342042 -1.991673,1.199463 -2.33187,2.22743 0.03134,0.153965 0.128381,0.255278 0.259296,0.311517 0.49324,-0.05624 0.916615,-0.325677 1.451342,-0.259296 0.122619,0.339275 -0.439019,0.339116 -0.569013,0.621231 -0.962509,0.843578 0.0027,2.725007 -1.607999,3.007122 -0.470191,0.130915 -0.41682,0.657086 -0.725671,0.932747 -0.52643,0.68777 -1.404725,0.873815 -2.27965,0.776089 -0.623234,0.06454 -1.12189,-0.798042 -1.656617,-0.207076 0.06361,0.615858 0.57352,0.97713 0.880527,1.50356 0.785496,0.752306 1.85292,0.770457 2.850464,1.087606 0.121697,0.03134 0.243335,0.1376 0.309716,0.259296 0,0.217579 -0.280142,0.137629 -0.466375,0.104435 -0.624156,0.08851 -1.352275,0.198549 -1.968132,-0.05222 -0.09772,-0.03134 -0.17569,0.118571 -0.208879,0.207078 0.08943,0.688692 0.826291,0.921295 1.296484,1.294682 0.468346,0.217579 1.126557,0.166051 1.346902,0.72567 v 0.725671 c 0.217579,0.340198 0.303881,0.755044 0.207076,1.192044 -0.429625,0.493241 -0.703976,1.158697 -0.361935,1.813278 -0.186231,0.15212 -0.488097,-0.01902 -0.675251,0.100838 -0.217579,0.47019 -0.821827,0.580825 -0.983166,1.037187 -0.03134,0.382607 -0.247844,0.724373 -0.621231,0.779691 -0.315306,-0.02305 -0.50223,0.114955 -0.777892,0.05041 -0.194529,-0.216657 0.08091,-0.544378 -0.259297,-0.67345 -0.437,-0.08758 -0.619258,0.563249 -1.087606,0.309715 -0.220344,-0.119853 -0.421788,-0.193896 -0.518593,-0.410553 -0.02489,-0.285803 0.271845,-0.391322 0.466374,-0.520395 1.020591,-0.119853 2.375404,-0.281768 2.746024,-1.39732 0.05808,-0.536572 -0.192066,-0.989448 -0.102642,-1.451342 -0.153043,-0.590966 -0.756858,-0.971728 -1.346903,-1.037186 -0.560541,-0.153966 -1.201421,0.04284 -1.607998,-0.363736 -0.161341,-0.119853 -0.324064,-0.243365 -0.518594,-0.154858 -0.153043,0.03319 -0.218703,0.252583 -0.414156,0.154858 -0.153042,-0.153043 -0.384622,-0.372437 -0.56901,-0.154858 -0.372466,0.746773 -0.907928,1.599716 -1.813277,1.761056 -0.122619,-0.217579 0.117648,-0.473102 0.207078,-0.723869 0.283957,-0.592811 0.501377,-1.271433 0.621231,-1.917715 0.250768,-0.348496 0.558266,-0.782371 0.363735,-1.244264 -0.371544,-1.061157 -0.833897,-2.196057 -0.518593,-3.419476 0.217578,-1.425325 -0.132731,-2.767559 -1.192045,-3.730992 -0.592809,-0.340196 -1.052039,-0.956688 -1.762857,-1.087605 -0.470191,-0.153043 -1.20887,0.05603 -1.45134,-0.414155 0.05624,-0.494161 0.620827,-0.807262 0.830109,-1.244262 l 0.830109,-1.192045 c 0.339275,-0.06638 0.220516,0.395124 0.569012,0.361934 0.649048,0 0.61521,-1.064945 1.294683,-0.72567 0.315304,0.437923 0.826321,0.55936 1.141627,0.932747 0.437,1.780274 1.064527,3.488492 2.279649,4.923037 0.938539,1.214199 2.395988,2.147639 3.885849,1.710637 0.404732,-0.340196 0.940425,-0.705517 1.035386,-1.296483 0.406578,-2.833133 -3.174699,-4.245162 -2.900881,-7.046027 0.250769,-2.648746 2.932529,-4.102146 5.077892,-5.130114 1.181933,-0.624155 2.700518,-1.425398 2.798245,-2.954903 -0.03319,-0.154885 -0.0031,-0.261111 0.05222,-0.414154 z m -11.754784,0.893133 c -0.04197,0.0042 -0.08145,0.01749 -0.111641,0.03962 -0.154887,0.162262 -0.270692,0.441712 -0.207077,0.725671 0.06454,0.153042 0.207969,0.201243 0.361934,0.104435 0.153043,-0.187155 0.259297,-0.430981 0.259297,-0.673451 -0.0249,-0.140366 -0.176624,-0.208762 -0.302513,-0.196273 z m -1.977138,2.268846 c -0.250767,0.406577 -0.656193,0.799599 -0.777889,1.294683 -0.282115,0.315304 -0.376297,-0.39331 -0.72387,-0.207078 -0.122619,0.340198 -0.03319,0.799629 0,1.139826 0.0249,0.217579 0.194775,0.344707 0.412355,0.311516 0.810388,-0.340197 0.815818,-1.272685 1.348702,-1.865496 l 0.05222,-0.518594 C 30.267983,24.487703 30.1427,24.399225 30.021003,24.43057 Z m -5.648706,5.699126 c 0.120775,0.242471 0.11788,0.565915 0.466374,0.621232 0.340197,0.06454 0.778784,-0.363909 0.932749,0.104434 -0.06454,0.648126 -0.09701,1.412158 -0.414155,1.969935 -0.307008,0.316226 -0.80055,0.05403 -1.139825,0.207076 -0.46927,0.120775 -0.548859,1.270021 -1.139826,0.516793 -0.242471,-0.08851 -0.39874,0.188898 -0.518593,0.311517 -0.250768,0.590044 -0.503122,1.137851 -0.932747,1.606198 -0.09681,0.05808 -0.265132,0.149947 -0.361936,0.05222 -0.05808,-0.395513 0.278529,-1.121644 -0.311515,-1.244263 -0.250769,-0.03042 -0.508092,0.109351 -0.725671,0.207077 -0.462816,-0.03319 -1.043914,-0.002 -1.294683,0.468175 -0.06454,0.217578 -0.140295,0.485445 -0.415956,0.516791 -0.282114,-0.128149 -0.654392,-0.196547 -0.776089,-0.569011 -0.129072,-0.09772 -0.313331,-0.206185 -0.466374,-0.05222 -0.250768,0.250769 -0.319093,0.673451 -0.725671,0.673451 -0.315303,0 -0.57934,-0.0863 -0.83011,-0.207076 0.06361,-0.72096 0.853664,-0.803649 1.346904,-1.087606 0.997543,-0.217579 1.751202,-0.850955 2.747824,-1.037189 1.562696,-0.590965 2.826507,-1.771167 4.040707,-2.9531 0.187155,-0.06454 0.332361,-0.104435 0.518593,-0.104434 z m -8.085014,2.672195 c 0.107043,0.0022 0.225083,0.07142 0.311515,0.126048 0.217579,0.219423 0.675252,0.301865 0.675252,0.675252 -0.275662,0.186233 -0.740032,0.308823 -1.087605,0.154857 -0.184388,-0.186232 -0.07309,-0.495774 -0.104434,-0.777889 0.02489,-0.05439 0.06202,-0.131809 0.104434,-0.154858 0.03134,-0.01752 0.06516,-0.02412 0.100839,-0.02341 z m 13.578863,3.649962 c 0.524587,0.122619 0.636243,0.75412 0.725671,1.192045 -0.03319,0.468348 -0.0589,0.788233 -0.311516,1.192045 -0.532884,0.504303 -1.058031,1.165408 -1.244263,1.917715 0,0.52643 -0.02,1.00852 -0.05042,1.50176 -0.155809,0.128151 -0.318229,-0.06543 -0.415955,-0.154858 -0.250769,-0.372466 -0.173728,-1.209259 -0.828308,-1.089407 -0.340199,0.381685 -0.683954,0.956258 -0.466375,1.451342 0.275661,0.403811 0.8256,0.717834 0.518594,1.244263 -0.471113,0.250769 -0.310393,0.980949 -0.934548,1.037188 -0.938539,0.130915 -1.897578,-0.292646 -2.641586,0.361934 -0.250769,0.217579 -0.441741,0.523102 -0.570813,0.83011 -0.428703,0.06638 -0.301013,-0.527121 -0.518592,-0.77789 -0.153043,-0.250769 -0.454073,-0.07893 -0.671651,-0.207077 -0.340198,-0.122618 -0.684674,-0.489192 -1.089408,-0.207077 -0.347572,0.186232 -0.736013,0.597693 -1.139824,0.257495 l -0.570815,-0.154858 c -0.03042,-0.186231 0.205263,-0.434999 0.05222,-0.621232 l -1.087597,-0.466373 c -0.06638,-0.09772 -0.01415,-0.247903 0.05222,-0.311516 0.905348,-0.590966 1.942363,0.08272 3.00352,-0.104435 0.688692,-0.250768 1.327599,-0.07346 2.074373,-0.05041 0.403812,0.03319 0.889057,0.131318 1.139826,-0.208878 0.155808,-0.227721 0.257482,-0.577541 0.104434,-0.82831 -0.317148,-0.679472 -1.328723,-0.847107 -1.45134,-1.658417 -0.06454,-0.153044 -0.158475,-0.295557 -0.311517,-0.361936 -0.250769,-0.08943 -0.422683,0.223413 -0.673452,0.102642 -0.06454,-0.219423 -0.119463,-0.531803 -0.361935,-0.621233 -0.469269,0 -1.047529,0.21451 -1.451341,-0.102641 0.06361,-0.243394 0.38278,-0.188897 0.569013,-0.311516 0.657345,-0.12815 1.223233,-0.546151 1.813277,-0.83011 l 0.882329,-0.102642 c 0.897051,-1.457593 2.745605,-1.386805 4.300002,-1.451341 z M 19.63113,41.99432 c 0.06155,-0.0084 0.124246,-0.0074 0.181868,0.0018 0.34665,0.05624 0.664204,0.371932 0.828309,0.675253 -0.275661,0.18623 -0.618365,0.08176 -0.932747,0.05041 -0.187156,-0.153042 -0.292488,-0.494594 -0.259298,-0.673451 0.05854,-0.0272 0.120328,-0.04562 0.181868,-0.05401 z m 14.684476,5.582082 c 0.106313,0.01275 0.227362,0.105518 0.2647,0.174664 0.02304,0.161342 -0.19296,0.100839 -0.257496,0.100839 -0.130916,0.03227 -0.15264,-0.04092 -0.208879,-0.100839 0.0074,-0.06914 0.06756,-0.133608 0.104435,-0.156658 0.02812,-0.01729 0.06179,-0.02225 0.09723,-0.01801 z"
     style="fill:#fffffe;fill-opacity:1;stroke-width:0.921944" /><path
     id="Black-Stripe"
     d="m 6.5114376,14.899615 0.0018,3.270021 H 54.054568 V 14.899615 H 6.5132382 Z m 0.5690121,0.581618 h 4.9050293 v 2.106785 H 7.0804497 Z m 11.2127823,0 h 5.402014 v 2.106785 h -5.402014 z m 11.830411,0 h 5.393013 v 2.106785 h -5.393013 z m 11.738579,0 h 5.402014 v 2.106785 h -5.402014 z"
     style="fill:#ffffff;fill-opacity:1;stroke-width:0.921944" /><path
     id="Book-1-Black"
     d="m 10.656583,2.9719678 c -0.212829,0.010172 -0.417882,0.0334 -0.612227,0.073828 -0.4538742,-10e-8 -1.0626277,-0.2288813 -1.3216939,0.2250838 L 8.5948145,4.8176562 C 8.2693682,5.2072695 7.6620494,4.7538724 7.3055335,5.1435777 7.0463752,5.3612486 7.1134265,5.6191855 7.177686,5.8782516 c 0.09745,0.3232338 0.3815147,0.420398 0.6716504,0.4843802 0.1948989,0.1637375 0.4845046,-0.029606 0.6482418,0.1962734 0.2259685,1.1251406 -0.032532,2.1278319 0.064823,3.1889892 L 8.4003412,9.9099548 c -0.323418,0.033187 -0.671881,-5.69e-5 -0.9309472,0.1944732 -0.2590663,0.225876 -0.2592968,0.517628 -0.2592968,0.866122 0.128519,0.162262 0.1932683,0.390011 0.4213573,0.421357 0.2818382,0.16134 0.6718809,-0.06357 0.930947,0.228685 0.1617091,0.613093 -0.1950343,1.286632 0.2899082,1.707038 1.5152153,0.03134 3.0605803,0.03086 4.6403303,0.09723 0.289951,0.192686 0.548946,0.388355 0.905738,0.451969 0.414414,-0.03042 0.802092,-0.192903 1.094809,-0.451969 1.643826,-0.09773 3.416493,0.03242 5.157124,0.03242 0.162261,-0.388138 0.06483,-0.964311 0.06483,-1.384718 -0.16134,-1.13399 1.318913,-0.03125 1.514365,-1.002973 0.06361,-0.259066 0.06517,-0.543012 -0.06483,-0.768888 C 21.841074,10.008446 21.393771,10.007193 20.94202,10.007193 20.7143,9.8781207 20.779181,9.6204752 20.812371,9.4255762 c -0.195453,-0.899448 0.06361,-1.7415862 0,-2.6721968 L 20.94202,6.5589072 c 0.421329,-0.097726 0.834228,0.032675 1.15783,-0.3241206 C 22.230767,6.0089139 22.293892,5.7476005 22.1971,5.5217242 22.16389,5.326638 21.969527,5.2390016 21.806344,5.1435805 21.524229,4.9487738 21.006125,5.2387706 20.844786,4.8842838 20.811599,4.366059 20.812367,3.8779531 20.812367,3.3681182 20.52011,2.8830836 19.840538,3.2061788 19.395239,3.1088216 17.656454,3.2061788 15.880889,2.7224897 14.301138,3.4023311 13.783005,3.1742422 13.200885,3.0768676 12.626513,3.0457981 11.995559,3.0209057 11.295067,2.9414513 10.656579,2.9719707 Z m 0.163861,0.4465665 c 1.125233,0.089152 2.349805,-0.1959533 3.255614,0.378141 l 0.129649,0.2917088 c 0.06407,2.1617742 0.06483,4.3578266 0.06483,6.6156659 l -0.06483,0.835512 c -0.551784,0.03042 -1.103538,-0.259886 -1.710638,-0.196273 -0.615859,-0.06361 -1.293795,0.06589 -1.834884,-0.09544 -0.325446,-0.735711 -0.09749,-1.4830041 -0.163862,-2.2832511 0.03319,-1.6207773 0.06662,-3.5870044 0.06662,-5.3281875 0,-0.1284268 0.15977,-0.1867197 0.257496,-0.2178814 z m -1.3955202,0.027009 c 0.119173,-0.01218 0.246136,0.00389 0.360134,0.036014 v 0.129649 c -0.292255,0.2197913 -0.6723213,0.6403707 -0.543802,1.0299841 0.12225,2.7027708 1.96e-4,5.123107 0.122445,7.6654586 l 0.226885,0.261098 c 1.2624172,0 2.6471462,-0.132286 3.8696432,0.09544 0.06454,0.03134 0.06376,0.129937 0.03241,0.194473 -0.323602,0.129994 -0.7121,0.06661 -1.060595,0.06661 L 9.144021,12.85765 C 8.9181448,12.664042 9.0161732,12.209883 9.0161732,11.959116 c 0,-0.323604 0.097219,-0.712087 -0.2592965,-0.90754 C 8.3029095,10.954778 7.849656,11.085125 7.5594281,10.72926 7.7853964,10.088509 8.8213646,10.606367 9.0161712,9.8955489 9.113621,8.6973914 8.9194998,7.5063322 8.98376,6.3806386 8.85312,5.7338031 8.1412409,5.9291602 7.6872759,5.8314342 7.6230165,5.7672669 7.5345358,5.6688408 7.5594282,5.5379247 7.9470134,5.158637 8.7239153,5.6037284 9.0161715,5.0625475 9.1446904,4.5443227 9.0471203,4.0555312 9.1134077,3.5787941 9.1942623,3.4979397 9.3057518,3.4577256 9.4249238,3.4455433 Z m 6.3275612,0.00361 3.028729,0.032413 0.09544,0.1548579 c 0,2.6154623 -0.0011,5.1004832 -0.03242,7.6438498 -1.287033,0.128151 -2.738216,-0.0975 -4.031704,0.259298 -0.283958,-0.259067 -0.06487,-0.680612 -0.120644,-1.028184 -0.06454,-0.8437619 7.2e-5,-1.7738631 -0.04142,-2.6487877 0.04149,-1.2538438 -0.05631,-2.6726 0.04142,-3.903856 0.186232,-0.3792877 0.639267,-0.50959 1.060596,-0.50959 z m 4.2946,0.0054 c 0.12746,0.011916 0.247441,0.060316 0.311516,0.1566585 0.09772,0.5120476 -0.129129,1.191984 0.194474,1.7016346 0.322679,0.1948989 0.809941,0.096277 1.132621,0.1602597 0.129073,0.1287034 0.09874,0.3250227 0.03421,0.45557 -0.355869,0.3562389 -1.103796,-0.098288 -1.296483,0.4843802 0,1.2560559 -0.06531,2.4761542 0.03242,3.7724057 l 0.194473,0.162062 c 0.421328,0.06638 0.938697,-0.0947 1.222656,0.219681 0.03134,0.195452 -1.16e-4,0.387389 -0.187271,0.453769 -0.420405,0.09681 -1.036395,-0.131276 -1.26227,0.322321 -0.0968,0.518132 0.0659,1.036019 -0.09544,1.546776 l -0.228685,0.09724 -4.541294,-0.06302 c -0.09681,-0.06638 -7.35e-4,-0.131736 0.0306,-0.196272 l 0.45377,-0.16026 3.676972,0.0306 c 0.378918,-0.09588 0.379162,-0.573867 0.412353,-0.866123 -0.03319,-1.8051657 7.77e-4,-3.3835263 -0.03242,-5.1247101 C 20.068867,5.7326013 20.228994,4.899553 20.034457,4.0559744 20.001267,3.8632881 19.720118,3.7334439 19.686927,3.515773 19.784197,3.467095 19.919603,3.442634 20.047061,3.454551 Z M 10.107378,3.893914 c 0.12852,2.615462 -0.03217,5.1261541 0.03421,7.611437 -0.03319,0.129994 -0.1642122,0.29351 -0.3259222,0.29351 -0.192778,-0.810389 -0.161495,-1.580257 -0.09724,-2.3912912 -0.06426,-1.6433654 -0.03061,-3.4790841 -0.03061,-5.12291 0.06426,-0.1615246 0.25794,-0.3264863 0.4195562,-0.3907458 z m 9.329279,0.070227 c 0.112536,-0.00788 0.232922,0.1253729 0.282707,0.2232833 -0.03319,2.6155541 0.0311,5.1898008 -0.06662,7.5448147 -0.06454,0.129994 -0.192183,-0.0309 -0.289909,-0.09544 -0.16134,-0.38906 -0.03242,-0.875184 -0.03242,-1.256869 -0.09681,-2.097791 0,-4.2258024 0,-6.3545704 0.03273,-0.040427 0.06873,-0.058595 0.106238,-0.061222 z m -8.616213,7.768097 c 1.092043,0 2.153777,-8.35e-4 3.125965,0.226885 0.03088,0.16134 -0.129907,0.316327 -0.291708,0.37994 -1.027967,-0.281192 -2.161309,-0.08882 -3.253813,-0.217881 l -0.03421,-0.03421 c 0.06426,-0.192687 0.225681,-0.354732 0.453769,-0.354732 z m 4.962652,0 c 0.997543,0.03319 2.195824,-0.03134 3.160178,0 0.161339,0.06638 0.322752,0.193391 0.419555,0.354732 -0.0968,0.195452 -0.388008,0.09932 -0.581615,0.163861 h -1.029985 c -0.841735,-0.03964 -1.676094,-0.09634 -2.420103,0.05762 -0.130454,-0.0249 -0.261097,-0.123166 -0.261097,-0.284506 0.09727,-0.292255 0.454,-0.194905 0.713067,-0.291707 z m -1.318093,0.478977 c 0.250769,0.03964 0.41159,0.20257 0.540202,0.356535 0.06454,0.259066 0.03322,0.58127 -0.192672,0.711264 -0.130456,0.162262 -0.381223,0.194041 -0.576215,0.09724 -0.194991,-0.03134 -0.224305,-0.259095 -0.257496,-0.421357 -0.06407,-0.35587 0.29119,-0.476314 0.486181,-0.743678 z"
     style="fill:#fffffe;fill-opacity:1;stroke-width:0.921944" /><path
     id="Book-2-Black"
     d="m 32.599566,2.9827718 c -0.694568,0.0062 -1.378075,0.08634 -2.031156,0.3529317 -0.453597,0.2839586 -0.8753,-0.1627174 -1.328897,-0.2268846 l -2.929691,-0.032413 c -0.582668,0.097358 -1.513329,-0.2902106 -1.90331,0.356533 l -0.09544,1.5143647 c -0.164106,0.290228 -0.615599,0.1295273 -0.932748,0.2268847 -0.356792,0.064351 -0.583129,0.3816703 -0.518593,0.7688866 0.09773,0.746222 0.933987,0.4861672 1.418927,0.6788531 0,0.6407519 0.127375,1.1926732 0.03242,1.8726999 l 0.0306,1.4153266 c -0.355871,0.4204075 -1.155773,-0.03196 -1.512564,0.4861815 -0.06638,0.193608 -0.13024,0.453005 -0.06663,0.639239 0.259066,0.615857 1.06087,0.389665 1.548577,0.551006 0.128151,0.518132 0.0306,1.028643 0.0306,1.546776 0.421328,0.615859 1.321851,0.323343 1.968135,0.356533 0.964351,-0.03319 1.869903,0.03134 2.834256,0 l 0.808501,0.356533 c 0.453597,0.259066 0.865864,-0.0964 1.222656,-0.324121 l 1.287481,-0.03242 c 1.359866,-0.09772 2.615123,0.162119 3.936268,-0.03242 0.484942,-0.259067 0.09519,-0.777213 0.259296,-1.190244 0.09495,-0.225876 -0.09726,-0.519314 0.09544,-0.680653 0.453596,-0.09773 0.996003,-0.09639 1.255069,-0.516793 0.06454,-0.259067 0.0011,-0.479844 -0.16026,-0.673451 C 37.564544,9.9757135 36.980939,10.235385 36.65826,9.9099385 36.56053,8.8174359 36.59188,8.0070842 36.65826,6.850598 36.884136,6.3632583 37.620293,6.75241 37.945739,6.3320053 38.10708,6.1369212 38.106489,5.7475784 38.008759,5.5217022 37.782902,5.0115078 37.176882,5.1434465 36.753708,4.9797094 36.592369,4.3973174 36.787203,3.8780642 36.625862,3.270872 36.4636,3.1733304 36.269387,3.0125981 36.074857,3.0457882 34.946051,3.1675423 33.757176,2.9724273 32.59956,2.982765 Z m -0.451968,0.466374 2.542548,0.066625 0.06483,0.1854691 c -0.03319,2.5183825 0.03119,5.1010774 -0.03242,7.6114381 l -0.131449,0.06483 c -1.38476,0.12815 -2.736445,-0.226712 -3.990288,0.226886 -0.22772,-0.130917 -0.03183,-0.517802 -0.09544,-0.743679 V 4.155009 c 0,-0.2260606 0.152999,-0.4219219 0.34753,-0.4861813 0.356792,-0.250861 0.841086,-0.1533021 1.294682,-0.2196819 z m 3.774208,0.00361 c 0.147972,0.00285 0.283455,0.039889 0.347529,0.1818679 0,0.5823919 -0.03368,1.1021032 0.09725,1.6782259 0.387215,0.3567922 1.480988,-0.1531926 1.253267,0.7130659 -0.348495,0.2258767 -0.833639,0.06368 -1.220856,0.1278485 l -0.09724,0.1296473 c -0.161342,1.2875869 0.09772,2.615324 0,3.7742077 0.03134,0.129072 0.09722,0.355092 0.289907,0.37814 0.355871,0.04149 0.907409,-0.215907 1.028184,0.237689 -0.05624,0.768902 -1.059026,0.0632 -1.318091,0.66985 -0.09772,0.582669 0.161094,1.09269 -0.06663,1.644014 l -0.160259,0.09723 c -1.643826,-0.03319 -3.254491,-0.03168 -4.80059,-0.06302 -0.06454,-0.03319 -0.03396,-0.130671 0.03242,-0.163861 l 0.289908,-0.16206 c 1.287956,-0.128151 2.704249,3.02e-4 4.064117,-0.127848 0.195452,-0.03319 0.348307,-0.187213 0.315116,-0.381742 0,-2.4523717 0.03421,-5.0033259 0.03421,-7.7392865 -0.06454,-0.3897057 -0.445053,-0.6169418 -0.509589,-0.9651599 0.112939,0 0.273385,-0.031669 0.421357,-0.028811 z m -10.701392,0.02521 c 0.116281,-0.00389 0.23514,0.02122 0.343929,0.037814 -0.06454,0.2818382 -0.314772,0.3788295 -0.444766,0.6068263 -0.195452,0.5182247 0.0329,1.036576 -0.06483,1.5773883 0.03319,2.228338 9.97e-4,4.3243766 0.03421,6.5112276 0,0.169637 0.118641,0.355798 0.280904,0.387144 l 3.45729,0.06483 c 0.186232,0.03134 0.412886,0.09781 0.543802,0.226885 -0.06454,0.19453 -0.323041,0.130714 -0.484381,0.162059 -1.2898,-0.03134 -2.672455,0.06503 -3.929065,-0.09724 L 24.82966,12.85765 c -0.03319,-0.574371 0.03037,-1.190705 -0.228686,-1.708838 -0.388139,-0.16134 -0.866152,3.03e-4 -1.28748,-0.127848 -0.19453,-0.09773 -0.128149,-0.356359 0,-0.478977 0.421329,-0.225877 1.223665,0.122446 1.449541,-0.45377 -0.03134,-1.2625084 0.06638,-2.4529607 0,-3.7399937 -0.356793,-0.5185011 -1.093526,-0.033288 -1.417128,-0.5185934 0.129072,-0.7377395 1.157284,-0.09687 1.44954,-0.7040626 l 0.09903,-1.5143669 c 0.09727,-0.096389 0.209642,-0.129366 0.325922,-0.1332497 z m 3.053939,0 c 0.563539,0.0031 1.111261,0.049457 1.58099,0.2556954 0.292258,0.2590662 0.259297,0.7126251 0.259297,1.1002103 -0.03134,1.223235 0.06609,2.6733488 -0.06483,3.9686803 l 0.03421,0.444765 c 0.06454,0.8411812 -9.97e-4,1.5145652 -0.03421,2.3894912 -0.387217,-0.06638 -0.810548,-0.194762 -1.222656,-0.259298 -0.808545,0 -1.585412,0.06609 -2.357078,-0.06483 l -0.06302,-0.29171 c 0,-2.5102679 0.03242,-4.8990349 0.03242,-7.4403734 -0.03319,-0.1388447 0.09753,-0.064046 0.162062,-0.097236 0.530578,0.032084 1.109285,-0.00851 1.672823,-0.0054 z m -2.353477,0.3529271 0.129648,0.1278478 c 0.09773,2.2284308 -0.128149,4.2280343 0,6.4536063 -0.192685,0.510757 0.22726,1.254722 -0.518592,1.384715 -0.128151,-2.2278748 -0.03086,-4.6152923 -0.09724,-7.0280191 -0.06361,-0.387493 0.162578,-0.7433432 0.48618,-0.93815 z m 9.421113,0.203476 c 0.140928,0.022814 0.286306,0.1689433 0.286306,0.3151174 -0.03134,2.4540305 0.06589,5.0923394 -0.09544,7.4799887 -0.130917,0.03319 -0.292732,-0.12838 -0.325922,-0.259296 -0.03134,-1.003074 -0.127559,-2.0000273 -0.06302,-3.0593402 0.06454,-1.3925961 -0.09924,-3.0271829 0.06302,-4.4530612 0.04034,-0.024363 0.08808,-0.031014 0.13505,-0.023408 z m -9.06458,7.6978701 c 1.125693,0.09773 2.355739,-0.06357 3.450087,0.228686 0.129072,0.03042 0.289432,0.162075 0.194473,0.315118 l -0.259297,0.228685 c -1.125694,-0.414876 -2.552489,-0.130687 -3.741796,-0.31692 0.0968,-0.162261 0.195193,-0.324652 0.356533,-0.455569 z m 6.021445,0.02521 c 0.859828,-0.01363 1.707282,0.04142 2.551552,0.04142 0.164106,0.09772 0.356533,0.259096 0.356533,0.421358 l -0.16206,0.05582 c -1.350648,0.03319 -2.743647,-0.153245 -3.997492,0.16206 -0.195451,0.03319 -0.41522,-3.02e-4 -0.446566,-0.21788 0.120774,-0.292258 0.51011,-0.390012 0.833712,-0.421358 0.28972,-0.02421 0.577713,-0.03688 0.864321,-0.04142 z m -2.022154,0.8085 c 0.228643,-0.06361 0.347775,0.162637 0.414156,0.291709 0,0.258144 -0.03297,0.585219 -0.316918,0.585219 -0.225877,0.03042 -0.583419,4.46e-4 -0.583419,-0.325922 0.06454,-0.224954 0.260306,-0.421934 0.486181,-0.551006 z"
     style="fill:#fffffe;fill-opacity:1;stroke-width:0.921944" /><path
     id="Book-3-Black"
     d="M 49.538484,2.9647651 C 48.412791,3.1575435 47.027858,2.8112644 46.088397,3.5139698 45.603454,3.3522609 45.15879,3.1268255 44.640658,3.1268255 l -4.413446,-0.099037 -0.169264,0.1296484 -0.05583,1.6764251 -0.06483,0.1620605 c -0.486786,0.1616167 -1.132853,0.032322 -1.391919,0.5816169 -0.05808,0.3254461 -0.03296,0.6831667 0.259296,0.8679243 0.32268,0.2277196 1.098698,-0.1218499 1.163234,0.4519678 -0.03134,0.9390935 0.03421,1.9044143 0.03421,2.9098853 -0.09772,0.3479422 -0.517757,0.1193775 -0.745478,0.2502942 -0.290412,0.06361 -0.582682,0.226525 -0.614028,0.549205 -0.03319,0.259989 0.03006,0.584915 0.32232,0.713065 0.323602,0.153043 0.842657,0.03294 1.037186,0.356534 0.161342,0.543025 -0.228224,1.321203 0.289909,1.764657 l 2.834257,0.03242 c 0.931164,0.03319 2.032166,-0.121855 2.834257,0.390745 0.484942,0.192686 0.875789,-0.165647 1.231659,-0.358332 l 3.797617,0.03962 c 0.387216,0 0.808242,0.0013 1.165033,-0.169263 0.09772,-0.543025 -0.06517,-1.126977 0.06483,-1.636811 0.129072,-0.35587 0.581976,-0.233035 0.835511,-0.354732 0.258144,-0.09773 0.419701,-0.290139 0.451969,-0.549206 -10e-7,-0.259067 -0.16278,-0.455512 -0.324122,-0.650043 -0.318071,-0.161339 -0.705359,-0.127964 -0.995771,-0.3151173 0,-1.1002463 -0.09773,-2.1614385 0,-3.133167 0.258144,-0.3236021 0.770183,-0.033705 1.060597,-0.3241217 0.161336,-0.1866014 0.35444,-0.4128299 0.289904,-0.7382761 C 53.440969,4.8665113 52.543731,5.2554823 52.124247,4.89869 52.02652,4.3245034 52.285544,3.6445036 51.895562,3.1574407 51.118363,2.9957316 50.31568,3.126478 49.538482,2.9647687 Z m -0.646441,0.4753772 1.159633,0.041415 c 0.16134,0.2507687 0.127847,0.6080797 0.127847,0.9003357 0,1.5465608 0.03217,2.9958369 -0.03421,4.4530611 0,0 0.0668,1.9588139 -0.05582,2.5101359 l -0.259298,0.09724 c -1.164415,0.128149 -2.38684,-0.260349 -3.383462,0.322319 -0.19453,0.03319 -0.195538,-0.225516 -0.226883,-0.322319 l 0.06483,-3.3204396 c 0.03319,-0.030793 0.04827,-0.055431 0.06302,-0.072029 L 46.29188,7.8625913 45.73187,7.7977643 v 0.2034764 c 0.147511,0.039641 0.09826,0.2581014 0.131449,0.34753 0.03319,1.09195 0.0329,2.2821863 -0.06483,3.2880273 -0.35587,0.09495 -0.583417,-0.226886 -0.929147,-0.226886 -0.908114,0.06361 -1.750957,-0.0985 -2.681199,0.03242 -0.325445,-0.130917 -0.226885,-0.518046 -0.226885,-0.810302 -0.03134,-2.4437975 -0.0011,-4.5744448 -0.03242,-7.0514312 0.03134,-0.064168 0.128136,-0.099037 0.192672,-0.099037 1.125694,0 2.097221,0.033386 3.158378,0.1224456 0.710819,0.2258762 0.51966,1.0684839 0.551007,1.611601 -0.03964,0.209097 -0.09774,0.4039987 -0.153058,0.6068264 l 0.129647,0.2755019 0.493385,0.097232 0.153057,-0.3475298 c -0.08113,-0.275662 -0.16217,-0.5523114 -0.234081,-0.8193062 0.06361,-0.4539652 -0.09672,-0.9049772 0.226884,-1.294683 0.671175,-0.4207751 1.611875,-0.1546647 2.445311,-0.2935094 z m 2.4129,0.012605 c 0.145552,0.00284 0.282921,0.056438 0.331324,0.1818678 0.130916,0.6155819 -0.128064,1.2322529 0.226883,1.7754622 0.380763,0.097358 0.998437,-0.1306855 1.192045,0.2592967 -0.03227,0.7771989 -1.095816,0.160231 -1.321693,0.77609 0.09772,1.223051 -0.0985,2.2270993 0.03242,3.5473225 -0.130915,0.094952 -0.159784,0.2247805 -0.06483,0.3529315 0.348494,0.292256 0.800074,-0.192153 1.159633,0.131448 0.225875,0.06454 0.09724,0.259123 0.09724,0.381743 -0.295022,0.420406 -0.999357,-0.05864 -1.192044,0.48438 l -0.06483,1.611602 -0.226886,0.09723 -4.291001,-0.0306 c -0.06638,-0.06638 -0.03212,-0.09826 0.03242,-0.131449 L 47.732417,12.6956 h 3.257415 c 0.161341,-0.03134 0.387144,-0.163069 0.387144,-0.388945 -0.03319,-2.5427212 -0.06483,-5.1898184 -0.06483,-7.9589681 L 50.923201,3.5787941 c 0.08205,-0.080854 0.23619,-0.1288935 0.381742,-0.1260468 z m -10.361065,0.02521 c 0.06787,0.00701 0.129951,0.031415 0.174666,0.1008375 -0.06454,0.2507685 -0.381252,0.446797 -0.478979,0.7058632 0.03319,2.6470845 -4.9e-4,5.5134683 0.09725,8.248876 l 0.228685,0.129647 c 1.416106,0.03134 2.93073,-0.290959 4.154149,0.29171 0.06454,0.03319 0.03134,0.03343 0,0.06661 -1.547944,-0.03319 -3.095009,0.09393 -4.607918,-0.03421 l -0.131448,-0.16206 c -0.06361,-0.576215 0.0664,-1.12496 -0.192673,-1.644013 -0.355871,-0.322681 -1.382685,0.09831 -1.123619,-0.639239 0.378919,-0.290412 0.993135,0.096 1.220855,-0.388945 0,-1.3530441 0.06531,-2.5509744 -0.03242,-3.804818 C 39.960167,5.9582329 39.41053,6.2186869 39.029766,6.1213307 38.900694,5.9928115 38.804382,5.7970426 38.93253,5.6351493 39.352936,5.2866545 40.575536,5.733696 40.349658,4.7366141 40.477809,4.315839 40.154135,3.514736 40.736803,3.4815461 c 0.06546,0 0.139199,-0.010605 0.207077,-0.00361 z m 0.531198,0.3853432 c 0.128151,0.2902279 0.06511,0.4856338 0.129649,0.7778901 v 6.9289824 c -0.06454,0.195452 -0.291363,0.292285 -0.421357,0.421359 L 41.05372,11.894302 C 41.02882,11.14845 41.08655,10.315079 41.03031,9.6020473 V 9.05104 C 40.98882,7.5381306 40.987338,5.8613738 41.05372,4.3152741 41.182792,4.186663 41.312815,3.927565 41.475076,3.8633058 Z m 9.176222,0.028811 c 0.131508,0.00322 0.295845,0.2713338 0.369139,0.3925464 -0.06454,1.8054425 -0.03032,3.5138622 0.03421,5.2219472 -0.03319,0.8101109 -0.03421,1.5140329 -0.03421,2.2580409 -0.03134,0.06361 -0.03086,0.09646 -0.09724,0.129649 -0.549478,-0.22772 -0.353955,-0.843249 -0.387145,-1.319893 0.03319,-0.6794713 -0.06513,-1.4567559 0.06302,-2.1283926 l -0.09724,-0.2268847 0.03421,-4.2261757 c 0.03204,-0.073065 0.0714,-0.1019109 0.115242,-0.1008375 z m -4.755573,2.583963 c -0.292256,0.2590662 -0.193982,0.6754046 -0.291708,1.029985 l 0.162059,0.066628 c 0.162263,0.063987 0.454981,0.062667 0.518594,-0.099036 C 46.156521,7.117228 46.18614,6.6711629 45.895725,6.4760789 Z M 42.37001,11.788056 c 0.346074,9.98e-4 0.732715,0.07488 1.008376,0.01081 0.74493,0.09681 1.576583,-0.130685 2.225631,0.259297 0.09773,0.06361 0.09773,0.225401 0,0.250294 -0.389983,0.453596 -0.866584,-0.09773 -1.384716,0 -0.841735,-0.09773 -1.770998,4.9e-4 -2.614576,-0.09725 0.11386,-0.352182 0.41921,-0.424194 0.765285,-0.423158 z m 5.331788,0.04142 2.637985,0.06483 c 0.162262,0.09588 0.323342,0.26019 0.356532,0.414153 -1.320223,0.161341 -2.6057,-0.154021 -3.867842,0.194472 -0.195451,-0.03319 -0.260809,-0.252669 -0.196274,-0.381741 0.259067,-0.292255 0.68054,-0.225329 1.069599,-0.291709 z m -1.710638,0.576215 c 0.292258,-0.03319 0.423735,0.193349 0.552807,0.356534 0.03227,0.290411 0.03253,0.711266 -0.356533,0.711266 -0.259066,0.03319 -0.484669,-0.09824 -0.549205,-0.324122 -0.06638,-0.323603 0.127056,-0.614606 0.352931,-0.743678 z"
     style="fill:#ffffff;fill-opacity:1;stroke-width:0.921944" /><path
     id="Veritas"
     d="M 29.726602,8.7052228 C 29.337542,8.3797774 29.239817,7.8948342 28.916215,7.5054058 29.04713,7.312166 29.273006,7.2795292 29.434346,7.1176358 29.693412,6.8668673 29.953401,6.5100746 29.824329,6.1206462 29.791138,5.7974122 29.629799,5.47381 29.306196,5.312101 28.632255,5.0614245 27.760097,5.1588741 27.077858,5.2230413 26.949708,5.2872083 26.916517,5.4098272 27.01332,5.507 c 0.259989,0.095513 0.356792,0.2904122 0.389983,0.5181323 -0.03319,0.8727122 -0.03319,1.73934 -0.129994,2.613711 l -0.356794,0.3816843 c 0.356794,0.3232339 0.84358,0.072468 1.361711,0.1613411 0.128152,-0.2258772 -0.227719,-0.3894298 -0.292255,-0.6401986 0.06454,-0.2590659 0,-0.6136452 0.161339,-0.8417342 0.484943,0.4207745 0.649049,1.092503 1.22342,1.4819328 l 0.760604,0.056239 -0.02489,-0.412477 c -0.09588,0.06398 -0.282115,-0.089066 -0.379842,-0.1204069 m -1.004918,-1.587587 c -0.217579,0 -0.574372,0.1618935 -0.637985,-0.1220657 0.03042,-0.4209595 -0.162262,-0.9704377 0,-1.3598668 0.28949,-0.2258761 0.744009,-0.1287032 0.963431,0.161709 0.128151,0.2277201 0.128151,0.5181321 0.128151,0.7771983 -0.128151,0.2277208 -0.19453,0.4867869 -0.453597,0.5430252 m 17.724368,0.9059006 c 0.129994,0.1945298 0.219423,0.3894278 0.19453,0.6401976 l -0.259066,0.3567917 0.162262,0.1281504 c 0.380763,-0.030793 0.898895,0.097725 1.255687,-0.063979 -0.09772,-0.1950835 -0.325446,-0.259066 -0.453596,-0.38777 C 46.891353,7.5137077 46.576048,6.2593103 46.220177,5.0365364 l -0.389982,0.1865093 c -0.225876,1.092503 -0.679472,2.0891246 -0.938538,3.2231161 -0.05624,0.217578 -0.283959,0.2507678 -0.446222,0.3794718 -0.225875,0.06398 -0.322679,-0.1950835 -0.420405,-0.3153058 -0.03134,-0.9717282 0.09772,-1.7743724 0.03319,-2.8106373 -0.03319,-0.1617089 0.16134,-0.3562391 0.323602,-0.1926863 0.259066,0.1287034 0.225876,0.4517526 0.32268,0.6800253 0.06638,0.097178 0.228642,0.097178 0.250769,-0.066381 L 45.119374,5.125686 c -0.130916,-0.3234179 -0.414875,0.03319 -0.673942,0 -0.484941,-0.03319 -1.164414,0.097358 -1.618933,-0.194899 -0.378919,0.1306395 -0.283958,0.6717284 -0.347572,1.0279675 -0.03134,0.06638 0,0.1309164 0.03319,0.1618936 0.314383,-0.1926866 0.476645,-0.710819 0.930241,-0.5826689 l 0.03319,0.9720973 -0.09772,2.0979761 c -0.129995,0.1617092 -0.445299,0.217579 -0.420406,0.4434542 0.549479,0.1635536 1.22895,0 1.780274,0.066383 0.315304,0.030793 0.672096,0.097176 0.931163,0 0.06361,-0.066383 0.03319,-0.1618938 -0.03134,-0.2282732 -0.194531,-0.097166 -0.423172,-0.259067 -0.356792,-0.5098347 0.09772,-0.1617093 0.129071,-0.4849432 0.421327,-0.3875855 0.07191,0 0.09681,0.039641 0.119854,0.089426 l 0.461892,0.05569 v -0.016598 c 0.06454,-0.063989 0.06454,-0.097166 0.162263,-0.097166 M 45.765664,7.5717967 45.604325,7.5054155 c 0.09772,-0.3545805 0,-0.7694547 0.292256,-1.0285208 0.290412,0.1950829 0.259066,0.6407508 0.387215,0.9971743 -0.06361,0.1617087 -0.355869,0.1617087 -0.518132,0.097726 m 3.619552,-2.1951477 c 0,0.2341737 0.169638,0.6549489 -0.03134,0.8245865 C 49.126155,6.0002501 49.09481,5.80572 48.729719,5.7079939 c -0.19453,0 -0.38906,0.03319 -0.428703,0.2590663 -0.06638,0.6966203 0.629686,0.6966203 1.019669,1.1505858 0.36509,0.3647211 0.52643,0.9556865 0.36509,1.4157361 -0.153965,0.3728345 -0.331899,0.5928105 -0.688692,0.5928105 -0.330979,0.063989 -0.567917,-0.1618937 -0.826984,-0.033187 -0.06361,0 -0.192685,0.063979 -0.267363,-0.033187 l 0.04149,-1.2787364 c 0.03319,-0.064535 0.09773,-0.097726 0.162263,-0.097726 0.19453,0.4207748 0.06361,0.9164122 0.654579,0.9472049 0.19453,-0.030793 0.356792,-0.05569 0.389983,-0.3147522 0.07191,-1.150585 -1.440999,-0.8666269 -1.409653,-2.0481896 0.03319,-0.2673637 0.06454,-0.4950839 0.202828,-0.7213288 0.259066,-0.4288885 0.850032,-0.1696378 1.246468,-0.4288885 0.163185,-0.064259 0.163185,0.1615246 0.19453,0.2592507 M 33.206941,5.312101 c -0.32268,0.161709 -0.679473,0.4207753 -0.582669,0.8749242 -0.0968,0.7771995 -0.06361,1.5774471 -0.03042,2.4210254 l 0.518131,0.4434542 -0.03319,0.066384 c -0.551323,0 -1.061158,0.097176 -1.610636,0 -0.22772,-0.2507688 0.290412,-0.3813152 0.387216,-0.5762152 0.09772,-0.9059019 0.195452,-1.8365114 0.09772,-2.8419838 -0.09772,-0.2898591 -0.582668,-0.1617089 -0.453595,-0.4766449 0.486785,-0.064167 1.12477,-0.064167 1.612478,0 z M 17.557866,5.9279596 C 17.23242,6.3155444 17.167884,5.5711672 16.845204,5.5379773 c -0.195452,-0.024523 -0.485865,-0.089059 -0.640751,0.064536 -0.06454,0.4226189 -0.129073,0.8103885 0,1.1998181 0.129994,0.095514 0.381685,0.064535 0.543024,0.064535 0.194531,-0.1309162 0.292256,-0.487155 0.551323,-0.4539655 0.16134,0.1617088 -0.06638,0.4207749 0.03134,0.5826683 -0.06454,0.2507695 0.16134,0.5430253 -0.129072,0.640198 C 17.006539,7.5386 16.908814,7.1818028 16.649747,7.1818028 l -0.445299,0.033191 c -0.162261,0.5826675 -0.09772,1.1008004 0,1.652123 0.250769,0.2507688 0.576216,0.022504 0.866627,0.022504 0.420407,-0.088867 0.325446,-0.671544 0.679473,-0.6070079 0.09773,0.2277196 0.130916,0.5845123 0.06638,0.8352811 l -0.19453,0.1285195 -2.29103,-0.031341 C 15.234098,9.1818855 15.005922,9.1818855 15.103648,9.0205426 15.8495,8.5748739 15.42725,7.6999507 15.524054,6.9955849 15.427254,6.4768998 15.816309,5.699701 15.136376,5.3849493 c -0.03273,-0.194991 0.194992,-0.1370008 0.259528,-0.194991 0.582668,0 1.351569,0.2198835 1.805166,-0.2591585 0.356792,0.1948989 0.323602,0.6403822 0.356792,0.9971744 M 14.042033,5.4098272 C 13.395289,5.9279596 13.3621,6.8336767 13.072148,7.5717849 12.813082,7.9921919 12.941693,8.6080506 12.529123,8.9642897 12.367322,9.0205266 12.236867,8.8671115 12.205521,8.7365701 11.977801,7.7331255 11.687389,6.7359511 11.331058,5.7974122 11.297867,5.507 10.626323,5.44062 11.013909,5.2230413 c 0.47895,-0.064167 0.835281,0.064167 1.289338,0.024892 0.09542,0.2900435 -0.356792,0.4517526 -0.228181,0.8085448 0.292256,0.4204059 0.194991,1.0611567 0.551323,1.4821162 L 12.78819,7.376703 c 0.0249,-0.7379236 0.866165,-1.4179499 0.153503,-2.0646014 0.161341,-0.2838665 0.648587,-0.08906 0.972189,-0.186417 0.06407,0.055963 0.292257,0.1222497 0.128151,0.2841431"
     style="fill:#fffffe;fill-opacity:1;stroke-width:0.921944" /></svg>
