<?xml version="1.0" encoding="UTF-8" standalone="no"?>
<svg
   xmlns:dc="http://purl.org/dc/elements/1.1/"
   xmlns:cc="http://creativecommons.org/ns#"
   xmlns:rdf="http://www.w3.org/1999/02/22-rdf-syntax-ns#"
   xmlns:svg="http://www.w3.org/2000/svg"
   xmlns="http://www.w3.org/2000/svg"
   xmlns:sodipodi="http://sodipodi.sourceforge.net/DTD/sodipodi-0.dtd"
   xmlns:inkscape="http://www.inkscape.org/namespaces/inkscape"
   version="1.1"
   id="Layer_1"
   x="0px"
   y="0px"
   width="60"
   height="60"
   viewBox="0 0 60 60.000002"
   enable-background="new 0 0 144 168.01"
   xml:space="preserve"
   sodipodi:docname="MGH_logo.svg"
   inkscape:version="1.0.1 (3bc2e813f5, 2020-09-07)"><metadata
   id="metadata39"><rdf:RDF><cc:Work
       rdf:about=""><dc:format>image/svg+xml</dc:format><dc:type
         rdf:resource="http://purl.org/dc/dcmitype/StillImage" /><dc:title></dc:title></cc:Work></rdf:RDF></metadata><defs
   id="defs37" /><sodipodi:namedview
   pagecolor="#ffffff"
   bordercolor="#666666"
   borderopacity="1"
   objecttolerance="10"
   gridtolerance="10"
   guidetolerance="10"
   inkscape:pageopacity="0"
   inkscape:pageshadow="2"
   inkscape:window-width="2250"
   inkscape:window-height="1438"
   id="namedview35"
   showgrid="false"
   inkscape:zoom="17.498959"
   inkscape:cx="27.138505"
   inkscape:cy="32.624631"
   inkscape:window-x="-6"
   inkscape:window-y="-6"
   inkscape:window-maximized="1"
   inkscape:current-layer="g47"
   inkscape:document-rotation="0" />


<g
   id="g47"><path
     id="path10"
     d="M 54.732448,0.88537926 4.9196761,0.89211126 V 1.0130417 c 0,27.0303473 -5.39e-5,44.8836513 24.8509829,57.9594953 l 0.05539,0.03114 0.05539,-0.03114 C 54.732504,45.952073 54.732448,28.071257 54.732448,1.0063183 Z M 54.486517,1.1272556 c 0,26.8850594 -0.0412,44.6695054 -24.660455,57.6000734 C 5.2033326,45.744873 5.1656054,27.985155 5.1656054,1.1346863 Z"
     style="fill:#ffffff;fill-opacity:1;stroke-width:0.345922" /><path
     id="path14"
     d="m 52.87109,2.8845668 -46.1528883,0.0074 v 0.082422 c 0,0.7402733 8.08e-5,1.4806003 -0.00336,2.2174149 -0.01729,10.2635113 -0.031047,19.9565453 2.8504811,28.8432813 1.5497312,4.780642 3.7947102,8.855443 6.8630392,12.459949 3.435005,4.036911 7.810891,7.392489 13.376777,10.256724 l 0.03851,0.02096 0.03784,-0.02096 C 52.916413,44.786344 52.895304,25.407656 52.87109,4.8979403 V 2.9676691 Z M 30.047669,5.5310042 c 0.823294,0.7298958 1.784739,1.6434541 1.767443,2.840344 h -3.48692 c 0,-1.2314819 0.90656,-2.0966106 1.719477,-2.840344 z m -1.605294,2.9612813 h 3.303824 c 1.667344,0.3701366 3.023061,1.2829922 3.673395,2.4660465 H 24.768978 c 0.650335,-1.1830543 2.006051,-2.0924497 3.673397,-2.4660465 z m -5.30977,2.5910385 h 13.971332 v 3.542322 l -7.052891,-2.193091 -6.918441,2.157959 z m 6.918441,1.636373 13.781479,4.282138 H 16.324968 Z m 1.258697,7.360978 c 1.124246,0 2.467018,0.07946 3.895677,0.667522 l 0.02027,0.01009 0.110815,0.197284 -0.01009,0.02771 c -0.12108,0.446241 -0.225322,1.300858 -0.297967,1.923517 l -0.03108,0.280386 h -0.674276 l -0.0034,-0.06284 -0.06959,-1.183027 c -0.498127,-0.567312 -1.625698,-0.930341 -2.888313,-0.930341 -2.162014,0 -3.503812,1.459629 -3.503812,3.811898 0,2.072073 0.971528,4.49023 3.711228,4.49023 0.563867,-3e-6 1.110748,-0.106882 1.716111,-0.331734 v -1.805959 c 0,-0.356301 -0.255685,-0.436052 -0.733059,-0.453348 l -0.810078,-0.03108 v -0.71617 h 0.07297 c 0.262901,0.0069 0.528937,0.01397 0.791836,0.02095 0.418567,0.01381 0.851537,0.02433 1.27356,0.02433 0.49121,0 1.047578,-0.01381 1.580297,-0.02771 0.214471,-0.0036 0.422377,-0.01078 0.619552,-0.01416 l 0.06891,-0.0034 v 0.608741 l -0.05539,0.01078 c -0.494667,0.100319 -0.664143,0.148663 -0.664143,0.435782 v 2.345107 l -0.04459,0.01756 c -1.466711,0.567311 -2.819672,0.84386 -4.134175,0.84386 -3.479977,0 -5.641502,-2.00597 -5.641502,-5.233423 0,-3.400414 2.863722,-4.922633 5.700282,-4.922633 z m -6.350911,0.193905 h 0.07297 v 0.656711 l -0.585101,0.04864 c -0.366678,0.03113 -0.470374,0.09689 -0.522263,0.200662 -0.07611,0.155668 -0.0897,0.525693 -0.09662,1.099925 v 5.74217 c 0,0.570772 0.01381,0.95515 0.08986,1.107355 0.04842,0.08649 0.200553,0.134553 0.522262,0.158766 l 0.588471,0.04864 V 30.03605 L 24.56831,30.02596 c -0.508507,-0.01381 -1.142031,-0.03108 -1.795824,-0.03108 -0.671088,0 -1.304126,0.01725 -1.816088,0.03108 l -0.449294,0.01009 v -0.698601 l 0.584418,-0.04864 c 0.321707,-0.02075 0.473913,-0.06883 0.518883,-0.158766 0.07611,-0.148747 0.08986,-0.532529 0.08986,-1.103302 v -5.548939 l -2.767376,5.759736 c -0.377054,0.778323 -0.653683,1.38685 -0.840481,1.857303 l -0.01756,0.04526 h -0.577655 l -0.01688,-0.04526 c -0.124544,-0.352834 -0.280559,-0.688215 -0.446602,-1.044515 l -0.05539,-0.117564 -3.102487,-6.465093 v 5.565832 c 0,0.570772 0.01381,0.954475 0.08987,1.10668 0.05535,0.103775 0.162504,0.172989 0.522261,0.200663 l 0.587799,0.04864 v 0.657387 h -0.07229 c -0.172962,-0.0036 -0.345922,-0.01055 -0.518884,-0.01756 -0.356299,-0.01381 -0.723192,-0.02771 -1.08641,-0.02771 -0.363219,0 -0.736707,0.01381 -1.099924,0.02771 -0.172963,0.0069 -0.346003,0.01415 -0.515505,0.01756 h -0.07229 v -0.657387 l 0.584421,-0.04864 c 0.363218,-0.02768 0.466913,-0.09681 0.522261,-0.204041 0.07611,-0.148747 0.08987,-0.53253 0.08987,-1.103302 v -5.74217 c 0,-0.584609 -0.01721,-0.951611 -0.08987,-1.110735 -0.05534,-0.100319 -0.159035,-0.169608 -0.522261,-0.197284 l -0.584421,-0.04798 v -0.657387 h 0.07229 c 0.159119,0.0037 0.315167,0.01009 0.474291,0.01347 0.802539,0.03113 1.639427,0.02767 2.431588,0 0.159119,-0.0036 0.314573,-0.01009 0.470239,-0.01347 h 0.04526 l 0.02027,0.04459 c 0.169502,0.380513 0.45351,0.986092 0.706033,1.518813 0.131455,0.273278 0.252361,0.532774 0.352677,0.747247 l 2.158638,4.510497 2.51469,-5.188831 c 0.179879,-0.366677 0.342869,-0.760622 0.501992,-1.141135 0.06227,-0.155667 0.124215,-0.304763 0.186474,-0.446591 l 0.01757,-0.04459 h 0.04798 c 0.283657,0.0037 0.536422,0.0133 0.76819,0.02027 0.325166,0.01044 0.609228,0.02095 0.847914,0.02095 0.242146,0 0.522154,-0.01055 0.843861,-0.02095 0.235228,-0.01043 0.494425,-0.01667 0.788459,-0.02364 z m 11.996468,0.0034 h 0.07297 c 0.15912,0 0.332169,0.0067 0.515504,0.01009 0.505049,0.01381 1.08271,0.02771 1.701912,0.02771 0.601904,0 1.172619,-0.01381 1.674206,-0.02771 0.186798,-0.0036 0.36314,-0.0067 0.522264,-0.01009 h 0.07229 v 0.695222 l -0.587799,0.04864 c -0.328626,0.02421 -0.484044,0.07228 -0.529016,0.158765 -0.08303,0.162588 -0.08986,0.59877 -0.08986,1.110735 v 2.157957 c 0.204094,0.01044 0.480534,0.02433 1.078978,0.02433 h 2.078904 c 0.598445,0 0.875561,-0.01397 1.079654,-0.02433 v -2.157957 c 0,-0.491211 -0.0076,-0.944692 -0.09053,-1.110735 -0.04499,-0.08647 -0.200495,-0.134548 -0.525661,-0.158761 l -0.587796,-0.04864 v -0.695223 h 0.07227 c 0.155667,0 0.328706,0.0067 0.515502,0.01009 0.508507,0.01381 1.079335,0.0277 1.698534,0.0277 0.608822,0 1.18343,-0.01381 1.685017,-0.0277 0.186798,-0.0037 0.359759,-0.0067 0.518883,-0.01009 h 0.07229 v 0.695223 l -0.591177,0.04864 c -0.321706,0.02421 -0.477968,0.07227 -0.522937,0.158767 -0.08649,0.162587 -0.09309,0.598769 -0.100005,1.110734 v 5.742169 c 0,0.508505 0.0067,0.944097 0.09323,1.10668 0.04151,0.08995 0.193636,0.135159 0.522262,0.162823 l 0.59185,0.04459 v 0.702655 l -0.324978,-0.01079 c -0.546557,-0.01381 -1.228238,-0.03445 -1.951214,-0.03445 -0.733354,0 -1.418173,0.01716 -1.96473,0.03445 l -0.3216,0.01079 v -0.702655 l 0.587797,-0.0446 c 0.332086,-0.02768 0.484049,-0.07289 0.529018,-0.162823 0.08303,-0.169502 0.08986,-0.61885 0.08986,-1.110059 V 25.42153 C 44.337096,25.40772 44.060656,25.3972 43.462212,25.3972 h -2.078854 c -0.598444,0 -0.875562,0.01044 -1.079656,0.02433 v 2.608604 c 0,0.511964 0.0076,0.947476 0.09053,1.110059 0.04497,0.08995 0.196935,0.135158 0.529019,0.162823 l 0.587799,0.04459 v 0.702655 l -0.328358,-0.01078 c -0.546556,-0.01381 -1.227725,-0.03445 -1.943785,-0.03445 -0.736813,0 -1.418766,0.02064 -1.968783,0.03445 l -0.318222,0.01078 v -0.702655 l 0.591851,-0.04459 c 0.332087,-0.02768 0.48067,-0.07289 0.525642,-0.162823 0.083,-0.16604 0.08986,-0.598095 0.08986,-1.110059 v -5.742885 c 0,-0.508504 -0.0069,-0.947557 -0.08986,-1.10668 -0.0415,-0.08649 -0.200541,-0.134557 -0.522248,-0.158771 l -0.591844,-0.04864 z m -13.982143,14.777361 0.114176,0.0973 c -0.03113,0.442769 -0.09323,1.231552 -0.09323,2.331585 v 2.960607 c 0,0.314788 0.231689,0.415105 0.522262,0.432403 l 0.574284,0.02772 v 0.342546 c -0.837131,-0.01044 -1.224212,-0.02772 -1.62894,-0.02772 -0.394351,0 -0.792298,0.01732 -1.868116,0.02772 v -0.342546 l 0.664143,-0.02772 c 0.294036,-0.01729 0.522262,-0.121065 0.522262,-0.432403 v -4.071342 c 0,-0.193717 0.0067,-0.40489 -0.13851,-0.339165 l -1.287072,0.595229 c -0.100319,-0.245604 -0.141523,-0.449485 -0.1277,-0.6432 0.67109,-0.15912 1.95427,-0.616227 2.746433,-0.931014 z m 10.385094,0 0.110117,0.0973 c -0.02768,0.442779 -0.08987,1.231561 -0.08987,2.331594 v 2.960608 c 0,0.31479 0.228229,0.415108 0.522262,0.432404 l 0.574285,0.02769 v 0.342545 c -0.840592,-0.01043 -1.227591,-0.02771 -1.63232,-0.02771 -0.39435,0 -0.792298,0.01732 -1.868113,0.02771 v -0.342545 l 0.664141,-0.02769 c 0.294035,-0.0173 0.522262,-0.121083 0.522262,-0.432404 v -4.071424 c 0,-0.193716 0.0067,-0.404889 -0.138511,-0.339162 l -1.283019,0.595228 c -0.103775,-0.245607 -0.138661,-0.449484 -0.13174,-0.6432 0.674547,-0.15912 1.961781,-0.616226 2.750485,-0.931014 z m 4.849663,0 0.110814,0.0973 c -0.03113,0.442779 -0.09391,1.231561 -0.09391,2.331594 v 2.960608 c 0,0.31479 0.232281,0.415108 0.526314,0.432404 l 0.574286,0.02769 v 0.342545 c -0.840592,-0.01043 -1.228267,-0.02771 -1.632996,-0.02771 -0.390893,0 -0.788917,0.01732 -1.864736,0.02771 v -0.342545 l 0.660766,-0.02769 c 0.294033,-0.0173 0.522258,-0.121083 0.522258,-0.432404 v -4.071424 c 0,-0.193716 0.0067,-0.404889 -0.138507,-0.339162 l -1.283021,0.595228 c -0.103775,-0.245607 -0.142129,-0.449484 -0.13174,-0.6432 0.674548,-0.15912 1.961783,-0.616226 2.750483,-0.931014 z m -10.695882,0.0973 c 0.850967,0 1.601242,0.411782 1.601242,1.349232 0,0.522341 -0.349381,0.930069 -0.864805,1.258695 0.494668,0.17988 1.141812,0.646903 1.141812,1.58435 0,1.203809 -0.958176,2.030939 -2.134311,2.030939 -1.290288,0 -1.850549,-0.819969 -1.850549,-1.608671 0,-0.67109 0.487535,-1.231672 1.075602,-1.491115 -0.570771,-0.300952 -0.916828,-0.754054 -0.916828,-1.414764 0,-1.013553 0.699059,-1.708666 1.947837,-1.708666 z m -0.117562,0.476991 c -0.505047,0 -0.882372,0.294495 -0.882372,0.816838 0,0.553474 0.449969,0.802325 0.882372,0.989123 l 0.404702,0.16958 c 0.3563,-0.283656 0.543204,-0.605471 0.543204,-0.975607 0,-0.57769 -0.34946,-0.999934 -0.947906,-0.999934 z m -0.533071,2.812644 c -0.411647,0.349382 -0.633065,0.671201 -0.633065,1.23505 0,0.671088 0.477751,1.224242 1.166136,1.224242 0.581148,0 0.985743,-0.487509 0.985743,-1.047902 0,-0.643415 -0.435699,-0.93099 -0.958041,-1.162757 z"
     style="fill:#ffffff;fill-opacity:1;stroke-width:0.345922" /></g>











</svg>
